# pymesh 1.0.2
# 2017-08-25 20:19:01.602000

v 7.0 -1.0 1.0
v 9.0 -1.0 1.0
v 7.0 1.0 1.0
v 9.0 1.0 1.0
v 7.0 1.0 -1.0
v 9.0 1.0 -1.0
v 7.0 -1.0 -1.0
v 9.0 -1.0 -1.0
v 7.0 3.0 1.0
v 9.0 3.0 1.0
v 7.0 3.0 -1.0
v 9.0 3.0 -1.0
v 7.0 5.0 1.0
v 9.0 5.0 1.0
v 7.0 5.0 -1.0
v 9.0 5.0 -1.0
v 7.0 7.0 1.0
v 9.0 7.0 1.0
v 7.0 7.0 -1.0
v 9.0 7.0 -1.0
v 7.0 9.0 1.0
v 9.0 9.0 1.0
v 7.0 9.0 -1.0
v 9.0 9.0 -1.0
v 7.0 11.0 1.0
v 9.0 11.0 1.0
v 7.0 11.0 -1.0
v 9.0 11.0 -1.0
v 7.0 13.0 1.0
v 9.0 13.0 1.0
v 7.0 13.0 -1.0
v 9.0 13.0 -1.0
v 11.0 -1.0 1.0
v 11.0 1.0 1.0
v 11.0 1.0 -1.0
v 11.0 -1.0 -1.0
v 11.0 3.0 1.0
v 11.0 3.0 -1.0
v 11.0 5.0 1.0
v 11.0 5.0 -1.0
v 11.0 7.0 1.0
v 11.0 9.0 1.0
v 11.0 9.0 -1.0
v 11.0 7.0 -1.0
v 11.0 11.0 1.0
v 11.0 11.0 -1.0
v 11.0 13.0 1.0
v 11.0 13.0 -1.0
v 13.0 -1.0 1.0
v 13.0 1.0 1.0
v 13.0 1.0 -1.0
v 13.0 -1.0 -1.0
v 13.0 3.0 1.0
v 13.0 3.0 -1.0
v 13.0 5.0 1.0
v 13.0 5.0 -1.0
v 13.0 7.0 1.0
v 13.0 7.0 -1.0
v 13.0 9.0 1.0
v 13.0 9.0 -1.0
v 13.0 11.0 1.0
v 13.0 11.0 -1.0
v 13.0 13.0 1.0
v 13.0 13.0 -1.0
v 7.0 -1.0 3.0
v 9.0 -1.0 3.0
v 7.0 1.0 3.0
v 9.0 1.0 3.0
v 7.0 3.0 3.0
v 9.0 3.0 3.0
v 7.0 5.0 3.0
v 9.0 5.0 3.0
v 7.0 7.0 3.0
v 9.0 7.0 3.0
v 7.0 9.0 3.0
v 9.0 9.0 3.0
v 7.0 11.0 3.0
v 9.0 11.0 3.0
v 7.0 13.0 3.0
v 9.0 13.0 3.0
v 11.0 -1.0 3.0
v 11.0 1.0 3.0
v 11.0 3.0 3.0
v 11.0 5.0 3.0
v 11.0 7.0 3.0
v 11.0 9.0 3.0
v 11.0 11.0 3.0
v 11.0 13.0 3.0
vn 0.0 0.0 1.0
vn -0.0 0.0 1.0
vn -0.0 1.0 0.0
vn 0.0 1.0 0.0
vn 0.0 0.0 -1.0
vn 0.0 -1.0 0.0
vn 1.0 -0.0 0.0
vn 1.0 0.0 0.0
vn -1.0 0.0 0.0
f 1//1 2//1 3//1
f 3//2 2//2 4//2
f 3//3 4//3 5//3
f 5//4 4//4 6//4
f 5//5 6//5 7//5
f 7//5 6//5 8//5
f 7//6 8//6 1//6
f 1//6 8//6 2//6
f 2//7 8//7 4//7
f 4//8 8//8 6//8
f 7//9 1//9 5//9
f 5//9 1//9 3//9
f 3//1 4//1 9//1
f 9//2 4//2 10//2
f 9//3 10//3 11//3
f 11//4 10//4 12//4
f 11//5 12//5 5//5
f 5//5 12//5 6//5
f 5//6 6//6 3//6
f 3//6 6//6 4//6
f 4//7 6//7 10//7
f 10//8 6//8 12//8
f 5//9 3//9 11//9
f 11//9 3//9 9//9
f 9//1 10//1 13//1
f 13//2 10//2 14//2
f 13//3 14//3 15//3
f 15//4 14//4 16//4
f 15//5 16//5 11//5
f 11//5 16//5 12//5
f 11//6 12//6 9//6
f 9//6 12//6 10//6
f 10//7 12//7 14//7
f 14//8 12//8 16//8
f 11//9 9//9 15//9
f 15//9 9//9 13//9
f 13//1 14//1 17//1
f 17//2 14//2 18//2
f 17//3 18//3 19//3
f 19//4 18//4 20//4
f 19//5 20//5 15//5
f 15//5 20//5 16//5
f 15//6 16//6 13//6
f 13//6 16//6 14//6
f 14//7 16//7 18//7
f 18//8 16//8 20//8
f 15//9 13//9 19//9
f 19//9 13//9 17//9
f 17//1 18//1 21//1
f 21//2 18//2 22//2
f 21//3 22//3 23//3
f 23//4 22//4 24//4
f 23//5 24//5 19//5
f 19//5 24//5 20//5
f 19//6 20//6 17//6
f 17//6 20//6 18//6
f 18//7 20//7 22//7
f 22//8 20//8 24//8
f 19//9 17//9 23//9
f 23//9 17//9 21//9
f 21//1 22//1 25//1
f 25//2 22//2 26//2
f 25//3 26//3 27//3
f 27//4 26//4 28//4
f 27//5 28//5 23//5
f 23//5 28//5 24//5
f 23//6 24//6 21//6
f 21//6 24//6 22//6
f 22//7 24//7 26//7
f 26//8 24//8 28//8
f 23//9 21//9 27//9
f 27//9 21//9 25//9
f 25//1 26//1 29//1
f 29//2 26//2 30//2
f 29//3 30//3 31//3
f 31//4 30//4 32//4
f 31//5 32//5 27//5
f 27//5 32//5 28//5
f 27//6 28//6 25//6
f 25//6 28//6 26//6
f 26//7 28//7 30//7
f 30//8 28//8 32//8
f 27//9 25//9 31//9
f 31//9 25//9 29//9
f 2//1 33//1 4//1
f 4//2 33//2 34//2
f 4//3 34//3 6//3
f 6//4 34//4 35//4
f 6//5 35//5 8//5
f 8//5 35//5 36//5
f 8//6 36//6 2//6
f 2//6 36//6 33//6
f 33//7 36//7 34//7
f 34//8 36//8 35//8
f 8//9 2//9 6//9
f 6//9 2//9 4//9
f 4//1 34//1 10//1
f 10//2 34//2 37//2
f 10//3 37//3 12//3
f 12//4 37//4 38//4
f 12//5 38//5 6//5
f 6//5 38//5 35//5
f 6//6 35//6 4//6
f 4//6 35//6 34//6
f 34//7 35//7 37//7
f 37//8 35//8 38//8
f 6//9 4//9 12//9
f 12//9 4//9 10//9
f 10//1 37//1 14//1
f 14//2 37//2 39//2
f 14//3 39//3 16//3
f 16//4 39//4 40//4
f 16//5 40//5 12//5
f 12//5 40//5 38//5
f 12//6 38//6 10//6
f 10//6 38//6 37//6
f 37//7 38//7 39//7
f 39//8 38//8 40//8
f 12//9 10//9 16//9
f 16//9 10//9 14//9
f 18//1 41//1 22//1
f 22//2 41//2 42//2
f 22//3 42//3 24//3
f 24//4 42//4 43//4
f 24//5 43//5 20//5
f 20//5 43//5 44//5
f 20//6 44//6 18//6
f 18//6 44//6 41//6
f 41//7 44//7 42//7
f 42//8 44//8 43//8
f 20//9 18//9 24//9
f 24//9 18//9 22//9
f 22//1 42//1 26//1
f 26//2 42//2 45//2
f 26//3 45//3 28//3
f 28//4 45//4 46//4
f 28//5 46//5 24//5
f 24//5 46//5 43//5
f 24//6 43//6 22//6
f 22//6 43//6 42//6
f 42//7 43//7 45//7
f 45//8 43//8 46//8
f 24//9 22//9 28//9
f 28//9 22//9 26//9
f 26//1 45//1 30//1
f 30//2 45//2 47//2
f 30//3 47//3 32//3
f 32//4 47//4 48//4
f 32//5 48//5 28//5
f 28//5 48//5 46//5
f 28//6 46//6 26//6
f 26//6 46//6 45//6
f 45//7 46//7 47//7
f 47//8 46//8 48//8
f 28//9 26//9 32//9
f 32//9 26//9 30//9
f 33//1 49//1 34//1
f 34//2 49//2 50//2
f 34//3 50//3 35//3
f 35//4 50//4 51//4
f 35//5 51//5 36//5
f 36//5 51//5 52//5
f 36//6 52//6 33//6
f 33//6 52//6 49//6
f 49//7 52//7 50//7
f 50//8 52//8 51//8
f 36//9 33//9 35//9
f 35//9 33//9 34//9
f 34//1 50//1 37//1
f 37//2 50//2 53//2
f 37//3 53//3 38//3
f 38//4 53//4 54//4
f 38//5 54//5 35//5
f 35//5 54//5 51//5
f 35//6 51//6 34//6
f 34//6 51//6 50//6
f 50//7 51//7 53//7
f 53//8 51//8 54//8
f 35//9 34//9 38//9
f 38//9 34//9 37//9
f 37//1 53//1 39//1
f 39//2 53//2 55//2
f 39//3 55//3 40//3
f 40//4 55//4 56//4
f 40//5 56//5 38//5
f 38//5 56//5 54//5
f 38//6 54//6 37//6
f 37//6 54//6 53//6
f 53//7 54//7 55//7
f 55//8 54//8 56//8
f 38//9 37//9 40//9
f 40//9 37//9 39//9
f 39//1 55//1 41//1
f 41//2 55//2 57//2
f 41//3 57//3 44//3
f 44//4 57//4 58//4
f 44//5 58//5 40//5
f 40//5 58//5 56//5
f 40//6 56//6 39//6
f 39//6 56//6 55//6
f 55//7 56//7 57//7
f 57//8 56//8 58//8
f 40//9 39//9 44//9
f 44//9 39//9 41//9
f 41//1 57//1 42//1
f 42//2 57//2 59//2
f 42//3 59//3 43//3
f 43//4 59//4 60//4
f 43//5 60//5 44//5
f 44//5 60//5 58//5
f 44//6 58//6 41//6
f 41//6 58//6 57//6
f 57//7 58//7 59//7
f 59//8 58//8 60//8
f 44//9 41//9 43//9
f 43//9 41//9 42//9
f 42//1 59//1 45//1
f 45//2 59//2 61//2
f 45//3 61//3 46//3
f 46//4 61//4 62//4
f 46//5 62//5 43//5
f 43//5 62//5 60//5
f 43//6 60//6 42//6
f 42//6 60//6 59//6
f 59//7 60//7 61//7
f 61//8 60//8 62//8
f 43//9 42//9 46//9
f 46//9 42//9 45//9
f 45//1 61//1 47//1
f 47//2 61//2 63//2
f 47//3 63//3 48//3
f 48//4 63//4 64//4
f 48//5 64//5 46//5
f 46//5 64//5 62//5
f 46//6 62//6 45//6
f 45//6 62//6 61//6
f 61//7 62//7 63//7
f 63//8 62//8 64//8
f 46//9 45//9 48//9
f 48//9 45//9 47//9
f 65//1 66//1 67//1
f 67//2 66//2 68//2
f 67//3 68//3 3//3
f 3//4 68//4 4//4
f 3//5 4//5 1//5
f 1//5 4//5 2//5
f 1//6 2//6 65//6
f 65//6 2//6 66//6
f 66//7 2//7 68//7
f 68//8 2//8 4//8
f 1//9 65//9 3//9
f 3//9 65//9 67//9
f 67//1 68//1 69//1
f 69//2 68//2 70//2
f 69//3 70//3 9//3
f 9//4 70//4 10//4
f 9//5 10//5 3//5
f 3//5 10//5 4//5
f 3//6 4//6 67//6
f 67//6 4//6 68//6
f 68//7 4//7 70//7
f 70//8 4//8 10//8
f 3//9 67//9 9//9
f 9//9 67//9 69//9
f 69//1 70//1 71//1
f 71//2 70//2 72//2
f 71//3 72//3 13//3
f 13//4 72//4 14//4
f 13//5 14//5 9//5
f 9//5 14//5 10//5
f 9//6 10//6 69//6
f 69//6 10//6 70//6
f 70//7 10//7 72//7
f 72//8 10//8 14//8
f 9//9 69//9 13//9
f 13//9 69//9 71//9
f 71//1 72//1 73//1
f 73//2 72//2 74//2
f 73//3 74//3 17//3
f 17//4 74//4 18//4
f 17//5 18//5 13//5
f 13//5 18//5 14//5
f 13//6 14//6 71//6
f 71//6 14//6 72//6
f 72//7 14//7 74//7
f 74//8 14//8 18//8
f 13//9 71//9 17//9
f 17//9 71//9 73//9
f 73//1 74//1 75//1
f 75//2 74//2 76//2
f 75//3 76//3 21//3
f 21//4 76//4 22//4
f 21//5 22//5 17//5
f 17//5 22//5 18//5
f 17//6 18//6 73//6
f 73//6 18//6 74//6
f 74//7 18//7 76//7
f 76//8 18//8 22//8
f 17//9 73//9 21//9
f 21//9 73//9 75//9
f 75//1 76//1 77//1
f 77//2 76//2 78//2
f 77//3 78//3 25//3
f 25//4 78//4 26//4
f 25//5 26//5 21//5
f 21//5 26//5 22//5
f 21//6 22//6 75//6
f 75//6 22//6 76//6
f 76//7 22//7 78//7
f 78//8 22//8 26//8
f 21//9 75//9 25//9
f 25//9 75//9 77//9
f 77//1 78//1 79//1
f 79//2 78//2 80//2
f 79//3 80//3 29//3
f 29//4 80//4 30//4
f 29//5 30//5 25//5
f 25//5 30//5 26//5
f 25//6 26//6 77//6
f 77//6 26//6 78//6
f 78//7 26//7 80//7
f 80//8 26//8 30//8
f 25//9 77//9 29//9
f 29//9 77//9 79//9
f 66//1 81//1 68//1
f 68//2 81//2 82//2
f 68//3 82//3 4//3
f 4//4 82//4 34//4
f 4//5 34//5 2//5
f 2//5 34//5 33//5
f 2//6 33//6 66//6
f 66//6 33//6 81//6
f 81//7 33//7 82//7
f 82//8 33//8 34//8
f 2//9 66//9 4//9
f 4//9 66//9 68//9
f 68//1 82//1 70//1
f 70//2 82//2 83//2
f 70//3 83//3 10//3
f 10//4 83//4 37//4
f 10//5 37//5 4//5
f 4//5 37//5 34//5
f 4//6 34//6 68//6
f 68//6 34//6 82//6
f 82//7 34//7 83//7
f 83//8 34//8 37//8
f 4//9 68//9 10//9
f 10//9 68//9 70//9
f 70//1 83//1 72//1
f 72//2 83//2 84//2
f 72//3 84//3 14//3
f 14//4 84//4 39//4
f 14//5 39//5 10//5
f 10//5 39//5 37//5
f 10//6 37//6 70//6
f 70//6 37//6 83//6
f 83//7 37//7 84//7
f 84//8 37//8 39//8
f 10//9 70//9 14//9
f 14//9 70//9 72//9
f 74//1 85//1 76//1
f 76//2 85//2 86//2
f 76//3 86//3 22//3
f 22//4 86//4 42//4
f 22//5 42//5 18//5
f 18//5 42//5 41//5
f 18//6 41//6 74//6
f 74//6 41//6 85//6
f 85//7 41//7 86//7
f 86//8 41//8 42//8
f 18//9 74//9 22//9
f 22//9 74//9 76//9
f 76//1 86//1 78//1
f 78//2 86//2 87//2
f 78//3 87//3 26//3
f 26//4 87//4 45//4
f 26//5 45//5 22//5
f 22//5 45//5 42//5
f 22//6 42//6 76//6
f 76//6 42//6 86//6
f 86//7 42//7 87//7
f 87//8 42//8 45//8
f 22//9 76//9 26//9
f 26//9 76//9 78//9
f 78//1 87//1 80//1
f 80//2 87//2 88//2
f 80//3 88//3 30//3
f 30//4 88//4 47//4
f 30//5 47//5 26//5
f 26//5 47//5 45//5
f 26//6 45//6 78//6
f 78//6 45//6 87//6
f 87//7 45//7 88//7
f 88//8 45//8 47//8
f 26//9 78//9 30//9
f 30//9 78//9 80//9
